<svg width="610" height="362" viewBox="0 0 610 362" fill="none" xmlns="http://www.w3.org/2000/svg">
<path d="M551.276 76.3286C453.823 -18.9467 398.91 -9.02368 344.522 20.6968C290.135 50.4172 186.543 -8.65976 96.6613 50.7569C6.77971 110.174 26.8914 207.681 108.294 226.751C189.696 245.844 223.183 296.672 294.386 324.598C365.589 352.523 381.067 315.888 464.571 326.708C580.345 341.726 676.055 198.34 551.276 76.3286Z" fill="#F6F9F6" fill-opacity="0.42"/>
<path d="M30.3072 101.535C31.3821 91.8793 35.156 77.9774 48.0065 69.3888C60.8569 60.8002 50.5145 37.2422 24.0492 52.0418C-2.41606 66.8413 -0.600751 99.2063 0.545759 107.407C2.64769 122.449 27.1543 129.703 30.3072 101.535Z" fill="#EBF1EF"/>
<path d="M188.86 105.514C178.756 109.929 186.734 116.723 187.689 121.138C188.621 125.554 194.974 126.379 198.271 122.691C201.543 118.979 188.86 105.514 188.86 105.514Z" fill="#D27D41"/>
<path d="M258.271 87.3668C263.694 86.5419 262.953 91.0546 263.144 95.4702C263.335 99.8858 261.329 106.339 255.931 104.423C250.533 102.53 258.271 87.3668 258.271 87.3668Z" fill="#D27D41"/>
<path d="M256.767 96.0774C262.762 85.8147 266.87 74.1206 259.943 62.9118C253.017 51.7029 243.152 46.1955 234.099 51.9213C206.487 34.2588 174.528 41.1734 162.084 71.3791C156.686 82.9519 160.866 98.4065 165.715 101.342C172.641 105.515 191.893 108.936 193.78 112.769C195.667 116.603 256.767 96.0774 256.767 96.0774Z" fill="#633E40"/>
<path d="M247.499 156.368C201.925 176.626 165.858 194.507 147.824 235.752C129.791 276.997 128.023 305.116 129.074 330.785C130.125 356.453 172.427 359.68 184.752 355.386C197.076 351.092 207.658 308.124 210.118 307.421C212.578 306.693 216.472 352.135 224.211 356.987C231.973 361.839 389.141 366.498 407.127 351.092C425.112 335.685 409.969 272.338 410.136 269.112C410.303 265.885 518.338 299.536 555.408 229.007C592.479 158.479 378.989 97.9218 247.499 156.368Z" fill="#6477AA"/>
<path d="M247.499 156.367C236.536 161.244 226.122 165.975 216.376 170.948C232.212 186.088 269.689 175.898 269.808 147.827C262.165 150.326 254.713 153.165 247.499 156.367Z" fill="#4A609B"/>
<path d="M467.701 229.395C501.284 261.007 542.845 265.423 569.979 206.419C597.113 147.415 538.044 104.108 511.363 111.629C484.683 119.126 467.701 229.395 467.701 229.395Z" fill="#7586B4"/>
<path d="M221.989 139.869C223.757 153.82 224.449 166.193 224.975 166.703C225.5 167.188 236.559 173.011 248.884 170.293C261.209 167.576 263.622 152.776 263.073 150.132C262.523 147.512 249.601 129 249.601 129L221.989 139.869Z" fill="#D27D41"/>
<path d="M254.665 136.424C251.942 132.373 249.601 129.024 249.601 129.024L221.989 139.894C222.682 145.352 223.207 150.569 223.613 154.936C227.841 155.518 232.499 155.324 237.587 154.208C247.26 152.097 252.252 144.867 254.665 136.424Z" fill="#A9602C"/>
<path d="M193.78 112.769C197.889 135.211 212.698 154.087 239.139 148.361C265.58 142.635 257.006 98.4791 256.767 96.1014C250.413 99.9105 248.192 91.6858 245.946 73.1985C237.61 76.1827 231.735 69.5107 231.735 69.5107C231.735 69.5107 200.134 90.036 191.201 92.2924C189.672 92.6563 193.661 93.7238 193.661 93.7238C193.661 93.7238 205.413 116.481 193.78 112.769Z" fill="#D27D41"/>
<path d="M218.311 91.8073C214.68 93.7482 211.169 97.0721 209.927 98.6005C208.685 100.129 205.102 98.1638 207.013 94.8885C208.924 91.6375 213.725 87.9982 216.52 87.2461C219.338 86.5183 220.556 90.6185 218.311 91.8073Z" fill="#633E40"/>
<path d="M217.164 97.8731C212.937 97.3393 213.056 104.788 215.874 104.788C219.195 104.788 221.034 98.3583 217.164 97.8731Z" fill="#633E40"/>
<path d="M235.938 84.6497C232.308 86.5906 228.797 89.9144 227.555 91.4429C226.313 92.9714 222.73 91.0062 224.641 87.7309C226.551 84.4798 231.352 80.8406 234.147 80.0885C236.966 79.3364 238.184 83.4366 235.938 84.6497Z" fill="#633E40"/>
<path d="M234.792 90.6914C230.564 90.1577 230.684 97.606 233.502 97.606C236.822 97.606 238.661 91.2009 234.792 90.6914Z" fill="#633E40"/>
<path d="M241.289 112.236C236.798 116.263 230.564 118.059 225.644 118.908C222.467 119.466 222.3 121.431 224.473 122.717C233.311 127.958 240.095 126.308 243.582 114.953C244.919 110.683 242.149 111.46 241.289 112.236Z" fill="white"/>
<path d="M175.006 294.44C174.6 294.246 174.099 294.44 173.908 294.852C173.86 294.925 170.134 303.101 166.097 306.595C165.763 306.886 165.715 307.42 166.001 307.784C166.169 307.978 166.384 308.075 166.622 308.075C166.813 308.075 167.005 308.002 167.148 307.881C171.471 304.144 175.245 295.92 175.388 295.556C175.603 295.119 175.436 294.634 175.006 294.44ZM176.869 241.064C176.941 241.088 176.989 241.088 177.06 241.088C177.443 241.088 177.777 240.822 177.873 240.433C177.968 239.972 177.705 239.536 177.251 239.439C176.917 239.366 168.892 237.498 164.186 239.414C163.756 239.584 163.565 240.069 163.732 240.506C163.899 240.943 164.377 241.137 164.807 240.967C169.011 239.269 176.798 241.064 176.869 241.064ZM203.239 193.778C202.833 193.56 202.331 193.73 202.14 194.142C199.37 199.625 198.271 204.332 198.223 204.526C198.128 204.987 198.39 205.424 198.844 205.521C198.916 205.545 198.964 205.545 199.035 205.545C199.417 205.545 199.752 205.278 199.823 204.89C199.823 204.842 200.922 200.183 203.597 194.894C203.788 194.482 203.645 193.972 203.239 193.778ZM219.386 232.209C219.195 232.112 214.441 230.146 209.593 234.077C209.234 234.368 209.187 234.902 209.473 235.241C209.64 235.46 209.879 235.557 210.118 235.557C210.309 235.557 210.476 235.508 210.62 235.363C214.68 232.063 218.597 233.664 218.741 233.713C219.171 233.883 219.648 233.689 219.816 233.276C219.983 232.864 219.792 232.379 219.386 232.209ZM248.932 216.172C248.837 215.929 246.639 210.325 238.064 204.72C237.682 204.478 237.181 204.575 236.918 204.963C236.679 205.351 236.774 205.861 237.157 206.127C241.384 208.893 243.94 211.635 245.349 213.454C246.854 215.42 247.38 216.754 247.38 216.778C247.499 217.118 247.81 217.312 248.144 217.312C248.24 217.312 248.335 217.288 248.431 217.264C248.884 217.094 249.099 216.608 248.932 216.172ZM282.826 167.721C277.882 173.738 276.974 178.008 276.926 178.178C276.831 178.639 277.117 179.076 277.571 179.173C277.619 179.173 277.691 179.197 277.738 179.197C278.12 179.197 278.455 178.93 278.55 178.542C278.55 178.494 279.434 174.466 284.092 168.813C284.378 168.449 284.331 167.94 283.996 167.649C283.638 167.309 283.113 167.357 282.826 167.721ZM301.218 195.477C301.003 195.307 295.724 191.279 290.541 189.994C290.111 189.896 289.657 190.163 289.538 190.6C289.442 191.037 289.705 191.498 290.135 191.619C294.984 192.808 300.143 196.763 300.191 196.811C300.334 196.932 300.525 196.981 300.692 196.981C300.931 196.981 301.194 196.86 301.337 196.641C301.648 196.277 301.576 195.744 301.218 195.477ZM154.082 324.985C153.867 324.815 148.589 320.788 143.406 319.502C142.976 319.405 142.522 319.672 142.402 320.108C142.307 320.545 142.57 321.006 143 321.127C147.848 322.316 153.008 326.271 153.055 326.319C153.199 326.441 153.39 326.489 153.557 326.489C153.796 326.489 154.059 326.368 154.202 326.15C154.512 325.786 154.441 325.252 154.082 324.985ZM298.853 239.875C294.721 242.423 292.141 246.28 292.046 246.45C291.783 246.838 291.902 247.348 292.261 247.615C292.404 247.712 292.571 247.76 292.715 247.76C292.977 247.76 293.24 247.639 293.407 247.396C293.431 247.348 295.891 243.66 299.713 241.307C300.095 241.064 300.215 240.555 300 240.166C299.761 239.754 299.235 239.633 298.853 239.875ZM273.893 253.777C273.439 253.729 273.033 254.093 273.009 254.554C272.412 262.099 269.426 265.86 269.402 265.908C269.116 266.272 269.163 266.781 269.498 267.073C269.641 267.194 269.832 267.267 270.023 267.267C270.262 267.267 270.501 267.17 270.644 266.976C270.788 266.806 273.988 262.803 274.633 254.699C274.681 254.214 274.347 253.826 273.893 253.777ZM237.157 257.732C236.989 257.611 233.215 254.845 225.07 251.788C224.641 251.618 224.163 251.861 224.02 252.273C223.852 252.71 224.091 253.195 224.497 253.341C232.38 256.3 236.153 259.042 236.177 259.066C236.321 259.163 236.488 259.236 236.655 259.236C236.918 259.236 237.157 259.115 237.324 258.896C237.61 258.533 237.515 257.999 237.157 257.732ZM177.084 328.746C176.845 328.357 176.344 328.236 175.962 328.479C175.579 328.721 175.46 329.231 175.699 329.619C180.07 336.922 181.336 341.434 181.36 341.483C181.455 341.847 181.79 342.089 182.148 342.089C182.22 342.089 182.291 342.089 182.363 342.065C182.793 341.944 183.056 341.483 182.936 341.046C182.865 340.852 181.575 336.267 177.084 328.746ZM160.03 277.602C159.863 277.481 156.089 274.715 147.944 271.658C147.514 271.488 147.036 271.731 146.893 272.143C146.726 272.58 146.965 273.065 147.371 273.211C155.253 276.171 159.027 278.912 159.051 278.937C159.194 279.034 159.361 279.106 159.528 279.106C159.791 279.106 160.03 278.985 160.197 278.767C160.46 278.403 160.388 277.869 160.03 277.602ZM265.103 305.406C264.649 305.357 264.243 305.673 264.171 306.134C263.359 312.442 258.08 318.507 258.009 318.58C257.698 318.92 257.722 319.453 258.08 319.769C258.248 319.914 258.439 319.987 258.63 319.987C258.845 319.987 259.084 319.89 259.251 319.72C259.49 319.453 264.936 313.218 265.819 306.376C265.867 305.867 265.533 305.454 265.103 305.406ZM295.318 312.709C295.27 312.684 290.732 311.423 286.552 308.657C286.17 308.414 285.668 308.511 285.406 308.9C285.167 309.288 285.262 309.797 285.644 310.064C290.039 312.976 294.673 314.261 294.888 314.334C294.96 314.358 295.031 314.358 295.103 314.358C295.461 314.358 295.796 314.116 295.891 313.752C296.011 313.291 295.748 312.83 295.318 312.709ZM255.501 341.823C255.477 341.823 252.515 340.998 249.792 339.202C249.41 338.96 248.908 339.057 248.646 339.445C248.407 339.833 248.502 340.343 248.884 340.61C251.822 342.55 254.928 343.424 255.047 343.448C255.119 343.472 255.19 343.472 255.262 343.472C255.62 343.472 255.955 343.23 256.05 342.866C256.217 342.405 255.955 341.944 255.501 341.823ZM320.923 322.219C320.494 322.025 320.016 322.243 319.849 322.656C317.293 328.721 316.648 336.339 316.624 336.655C316.576 337.116 316.911 337.528 317.365 337.553C317.388 337.553 317.412 337.553 317.436 337.553C317.866 337.553 318.224 337.213 318.248 336.776C318.248 336.703 318.893 329.11 321.353 323.287C321.545 322.874 321.353 322.389 320.923 322.219ZM317.436 293.882C317.699 293.882 317.986 293.736 318.129 293.493C318.368 293.105 318.248 292.596 317.866 292.353C317.579 292.159 310.748 287.913 303.344 289.199C302.89 289.272 302.603 289.709 302.675 290.17C302.747 290.631 303.176 290.922 303.63 290.849C310.414 289.66 316.958 293.736 317.006 293.785C317.126 293.833 317.293 293.882 317.436 293.882ZM314.976 265.811H315C315.454 265.811 315.812 265.447 315.812 265.01C315.812 264.938 316.027 257.514 317.054 253.122C317.15 252.661 316.887 252.225 316.433 252.127C316.003 252.03 315.549 252.297 315.454 252.758C314.379 257.344 314.164 264.671 314.164 264.986C314.164 265.423 314.522 265.811 314.976 265.811ZM203.693 274.545C203.239 274.448 202.809 274.715 202.714 275.176C201.639 279.761 201.424 287.088 201.424 287.404C201.4 287.865 201.758 288.253 202.212 288.253H202.236C202.69 288.253 203.048 287.889 203.048 287.452C203.048 287.38 203.263 279.98 204.29 275.564C204.409 275.103 204.123 274.642 203.693 274.545ZM354.005 255.039C353.647 254.748 353.145 254.796 352.859 255.16C352.715 255.33 349.228 259.576 341.608 257.975C341.155 257.877 340.725 258.169 340.629 258.63C340.534 259.091 340.82 259.527 341.274 259.624C342.588 259.891 343.806 260.012 344.929 260.012C351.067 260.012 354.005 256.397 354.148 256.203C354.411 255.839 354.363 255.33 354.005 255.039ZM348.511 275.952C348.058 275.952 347.699 276.316 347.699 276.777C347.699 276.802 347.508 280.611 340.486 288.811C340.199 289.151 340.223 289.684 340.557 290C340.725 290.145 340.916 290.194 341.107 290.194C341.346 290.194 341.561 290.097 341.728 289.903C349.276 281.096 349.347 276.923 349.347 276.753C349.323 276.316 348.965 275.952 348.511 275.952ZM367.739 299.632C358.925 300.238 354.698 302.3 354.507 302.397C354.101 302.592 353.933 303.101 354.124 303.514C354.268 303.805 354.554 303.975 354.865 303.975C354.984 303.975 355.104 303.95 355.223 303.877C355.271 303.853 359.355 301.864 367.835 301.281C368.289 301.257 368.623 300.845 368.599 300.384C368.575 299.947 368.193 299.607 367.739 299.632ZM387.803 336.437C387.732 336.437 381.211 337.189 371.657 332.385C371.25 332.191 370.749 332.361 370.558 332.773C370.367 333.185 370.534 333.695 370.94 333.889C378.464 337.674 384.125 338.183 386.633 338.183C387.469 338.183 387.947 338.135 388.018 338.111C388.472 338.062 388.783 337.625 388.735 337.189C388.663 336.703 388.257 336.388 387.803 336.437ZM391.673 301.815C391.267 301.621 390.765 301.791 390.574 302.228C387.612 308.681 389.117 314.431 389.189 314.674C389.284 315.038 389.619 315.28 389.977 315.28C390.048 315.28 390.12 315.28 390.192 315.256C390.622 315.135 390.884 314.674 390.765 314.237C390.741 314.189 389.356 308.803 392.055 302.931C392.246 302.495 392.079 302.009 391.673 301.815ZM387.469 280.635C387.063 280.417 386.561 280.586 386.37 280.999C386.155 281.411 386.322 281.921 386.728 282.115C386.8 282.139 393.273 285.487 395.662 290.121C395.805 290.412 396.092 290.582 396.402 290.582C396.521 290.582 396.665 290.558 396.784 290.485C397.19 290.267 397.334 289.757 397.142 289.369C394.515 284.25 387.755 280.78 387.469 280.635ZM379.013 251.861C379.037 251.861 380.59 252.2 383.146 253.292C385.486 254.311 389.189 256.228 393.44 259.576C393.584 259.697 393.775 259.746 393.942 259.746C394.181 259.746 394.443 259.624 394.587 259.43C394.873 259.066 394.802 258.533 394.443 258.266C385.988 251.642 379.61 250.284 379.348 250.235C378.894 250.138 378.464 250.429 378.392 250.89C378.273 251.351 378.583 251.788 379.013 251.861ZM414.722 250.672C408.273 256.349 406.1 263.215 406.028 263.506C405.885 263.943 406.123 264.404 406.577 264.549C406.649 264.574 406.745 264.598 406.816 264.598C407.174 264.598 407.485 264.38 407.604 264.016C407.628 263.943 409.73 257.295 415.821 251.933C416.155 251.642 416.203 251.108 415.893 250.745C415.582 250.405 415.057 250.381 414.722 250.672ZM439.229 249.046C439.253 248.585 438.895 248.197 438.441 248.173C437.987 248.149 437.605 248.512 437.581 248.973C437.366 254.529 440.137 259.066 440.232 259.26C440.399 259.503 440.662 259.649 440.925 259.649C441.068 259.649 441.235 259.6 441.355 259.527C441.737 259.285 441.856 258.775 441.618 258.387C441.618 258.338 439.038 254.068 439.229 249.046ZM472.788 257.416C472.74 257.392 466.984 255.281 464.213 248.634C464.046 248.221 463.544 248.003 463.138 248.197C462.708 248.367 462.517 248.876 462.709 249.289C465.766 256.64 472 258.896 472.263 258.993C472.358 259.018 472.454 259.042 472.525 259.042C472.86 259.042 473.194 258.824 473.29 258.484C473.457 258.047 473.218 257.586 472.788 257.416ZM527.439 223.96C527.009 224.13 526.817 224.615 526.985 225.052C526.985 225.076 528.203 228.206 529.063 231.893C530.185 236.649 530.281 240.191 529.326 242.107C529.111 242.52 529.278 243.029 529.684 243.223C529.803 243.272 529.923 243.321 530.042 243.321C530.353 243.321 530.639 243.151 530.783 242.86C533.458 237.425 528.681 224.979 528.49 224.445C528.322 224.008 527.845 223.79 527.439 223.96ZM559.206 201.736C558.753 201.663 558.346 202.003 558.275 202.44C557.176 210.543 553.474 217.53 553.426 217.603C553.211 218.016 553.354 218.525 553.76 218.744C553.88 218.816 554.023 218.841 554.143 218.841C554.429 218.841 554.716 218.695 554.859 218.404C555.026 218.113 558.753 211.077 559.899 202.658C559.971 202.221 559.66 201.809 559.206 201.736ZM572.487 175.631C572.081 175.412 571.579 175.558 571.364 175.946C570.242 177.984 567.471 179.998 563.339 181.793C560.138 183.176 557.248 183.928 557.224 183.928C556.794 184.049 556.507 184.486 556.627 184.947C556.722 185.335 557.057 185.578 557.415 185.578C557.487 185.578 557.558 185.578 557.606 185.554C558.108 185.432 569.692 182.4 572.773 176.771C573.036 176.358 572.893 175.873 572.487 175.631ZM562.909 157.071C563.291 157.071 563.625 156.804 563.697 156.44C563.792 156.003 563.53 155.542 563.1 155.421C555.934 153.674 548.028 153.019 547.956 152.995C547.502 152.946 547.096 153.31 547.073 153.771C547.025 154.232 547.383 154.644 547.837 154.669C547.909 154.669 555.695 155.324 562.718 157.046C562.789 157.071 562.861 157.071 562.909 157.071Z" fill="#4A609B"/>
<path d="M193.78 112.769C197.339 132.13 208.852 148.846 228.916 149.38C216.018 141.786 202.761 122.328 200.301 88.2646C196.503 90.2541 193.255 91.7341 191.201 92.2678C189.672 92.6317 193.661 93.6993 193.661 93.6993C193.661 93.6993 205.413 116.481 193.78 112.769Z" fill="#D27D41"/>
<path d="M370.367 98.8186C370.367 98.8186 349.467 90.9578 339.124 89.0412C328.782 87.1245 295.915 78.827 291.425 78.8028C283.638 78.7785 277.332 92.8502 289.777 100.954C302.221 109.057 328.304 114.807 328.304 114.807L370.367 98.8186Z" fill="#D27D41"/>
<path d="M310.987 110.101C320.279 113.061 328.304 114.832 328.304 114.832L370.367 98.8432C370.367 98.8432 358.376 94.3306 348.058 91.2979C335.47 103.04 320.9 107.99 310.987 110.101Z" fill="#A9602C"/>
<path d="M470.71 236.77C503.147 241.307 532.98 243.127 549.413 206.419C565.871 169.711 545.424 129.849 527.319 106.704C503.816 53.9592 491.61 43.6965 485.018 40.8336C478.449 37.9708 461.06 84.9897 461.06 84.9897C461.06 84.9897 443.194 46.5594 430.511 40.7123C414.054 42.5077 413.6 63.5182 413.6 63.5182C413.6 63.5182 395.041 44.9096 388.926 43.9391C382.811 42.9929 390.096 97.63 394.563 123.42C399.029 149.21 391.052 223.645 470.71 236.77Z" fill="#D27D41"/>
<path d="M525.241 160.006C526.77 166.848 519.222 171.142 513.585 173.18C507.948 175.218 503.839 153.48 503.839 153.48C503.839 153.48 522.446 147.439 525.241 160.006Z" fill="#269650"/>
<path d="M486.522 116.02C497.438 80.7923 486.451 46.8018 486.451 46.8018L465.885 98.4789C465.885 98.4789 440.375 129.631 440.495 95.0095C440.614 60.3882 431.012 51.0961 431.012 51.0961L425.256 96.0285L408.679 99.2068C408.679 99.2068 405.885 82.7817 390.12 54.6625C390.12 54.6625 392.413 87.8038 394.491 115.996H486.522V116.02Z" fill="#A9602C"/>
<path d="M507.542 200.499L341.537 239.269C331.361 241.646 321.21 235.193 318.869 224.857L298.59 135.308C296.25 124.972 302.603 114.661 312.778 112.283L478.783 73.5134C488.959 71.1358 499.11 77.5894 501.451 87.9248L521.73 177.474C524.071 187.81 517.717 198.121 507.542 200.499Z" fill="#232D44"/>
<path d="M514.779 154.887L366.664 189.46C363.798 190.139 360.789 189.557 358.352 187.907L338.694 174.515C334.061 171.361 332.627 165.077 335.398 160.152L347.293 139.166C348.774 136.57 351.234 134.701 354.124 134.022L502.215 99.4494C502.215 99.4494 511.101 97.5084 512.677 104.569C516.786 123.007 520.01 138.122 525.217 159.982C522.972 153.116 514.779 154.887 514.779 154.887Z" fill="#5CB77B"/>
<path d="M346.768 213.042L354.626 215.638C355.51 213.333 355.749 210.761 355.151 208.165C354.578 205.569 353.241 203.362 351.449 201.688L345.502 207.51C343.758 209.281 344.451 212.29 346.768 213.042Z" fill="#FF614F"/>
<path d="M344.689 214.714L339.003 220.804C337.143 219.207 335.725 217.062 335.031 214.492C334.315 211.932 334.453 209.344 335.241 207.004L343.203 209.239C345.568 209.951 346.372 212.93 344.689 214.714Z" fill="#FF614F"/>
<path d="M438.751 216.56C407.246 204.333 373.878 220.078 373.878 234.878C373.878 241.331 377.867 241.55 381.402 241.331C384.937 241.089 453.059 235.363 470.686 236.795C488.314 238.202 471.427 212.315 438.751 216.56Z" fill="#D27D41"/>
<path d="M487.979 42.4349C480.575 35.5932 465.766 37.3643 462.732 42.4349C459.675 47.5056 456.164 86.1543 458.266 92.3653C460.392 98.5763 472.693 101.439 477.828 92.6079C482.916 83.7767 490.44 55.9972 487.979 42.4349Z" fill="#D27D41"/>
<path d="M430.511 40.7115C418.854 34.1123 404.117 40.8328 402.875 53.4973C401.609 66.1376 407.485 96.9256 413.122 102.19C418.759 107.431 429.101 105.563 431.203 98.2115C435.933 81.8834 436.625 44.1566 430.511 40.7115Z" fill="#D27D41"/>
<path d="M388.926 43.9399C378.966 41.0042 366.378 50.3935 365.661 56.5802C364.945 62.7912 368.957 94.7679 377.294 107.651C385.63 120.534 397.859 112.188 399.268 102.41C400.678 92.6087 397.859 46.5601 388.926 43.9399Z" fill="#D27D41"/>
<path d="M400.582 239.827C400.128 236.94 399.507 234.708 389.165 236.285C378.822 237.886 376.792 239.584 377.103 241.355C377.413 243.126 400.582 239.827 400.582 239.827Z" fill="#E7B6A3"/>
<path d="M391.529 90.5707C384.316 89.4304 373.782 94.865 373.902 97.9947C374.021 101.124 379.348 111.072 382.62 111.557C385.892 112.042 392.628 109.956 394.037 107.748C395.423 105.516 394.897 91.1045 391.529 90.5707Z" fill="#E7B6A3"/>
<path d="M425.781 82.9277C419.26 81.0595 408.918 84.6988 408.679 87.5374C408.44 90.376 412.238 99.9351 415.224 100.76C418.186 101.585 424.659 100.517 426.211 98.6735C427.764 96.8053 428.862 83.8011 425.781 82.9277Z" fill="#E7B6A3"/>
<path d="M475.941 79.5312C470.471 75.4552 460.654 75.5765 459.46 78.1483C458.266 80.72 458.552 91.0312 461.06 92.8508C463.568 94.6704 468.847 95.5924 470.925 94.4278C473.027 93.2633 478.521 81.4479 475.941 79.5312Z" fill="#E7B6A3"/>
<path d="M218.359 299.632C211.79 299.729 213.199 298.103 209.282 291.407C205.365 284.711 205.198 300.02 205.437 305.382C205.604 309.434 202.069 327.072 194.186 345.219C202.212 331.172 208.351 307.954 210.166 307.444C212.626 306.716 216.519 352.158 224.258 357.011C224.545 357.18 224.999 357.35 225.668 357.52C214.752 339.761 217.332 316.13 220.962 310.283C226.575 301.209 224.927 299.535 218.359 299.632Z" fill="#4A609B"/>
<path d="M400.582 271.61C407.819 273.721 409.945 281.242 414.627 298.371C412.883 283.207 410.089 270.518 410.16 269.135C410.232 267.486 438.584 275.492 471.236 274.255C436.888 272.192 418.496 263.385 416.06 260.523C413.122 257.053 406.553 269.96 400.582 267.267C394.611 264.574 390.813 268.747 400.582 271.61Z" fill="#4A609B"/>
</svg>
