<svg width="573" height="399" viewBox="0 0 573 399" fill="none" xmlns="http://www.w3.org/2000/svg">
<path d="M59.4048 322.008C156.858 417.284 211.771 407.361 266.159 377.64C320.546 347.92 424.138 406.997 514.02 347.58C603.901 288.163 583.79 190.656 502.387 171.586C420.985 152.493 387.498 101.664 316.295 73.7394C245.091 45.8143 229.614 82.4493 146.11 71.6286C30.336 56.6107 -65.3737 199.997 59.4048 322.008Z" fill="#F6F9F6" fill-opacity="0.42"/>
<path d="M532.2 344.143C531.125 353.799 527.351 367.701 514.501 376.29C501.65 384.879 511.993 408.437 538.458 393.637C564.923 378.837 563.108 346.472 561.962 338.272C559.86 323.23 535.353 315.976 532.2 344.143Z" fill="#EBF1EF"/>
<mask id="mask0_5442_25050" style="mask-type:luminance" maskUnits="userSpaceOnUse" x="32" y="0" width="520" height="399">
<path d="M551.505 0H32V398.213H551.505V0Z" fill="white"/>
</mask>
<g mask="url(#mask0_5442_25050)">
<path d="M476.095 101.686C385.593 102.583 250.078 100.537 159.577 101.433C161.172 93.0915 160.728 86.3314 162.22 78.5273C201.425 79.7989 430.094 79.1542 478.677 79.1542C477.259 86.5737 476.72 91.9077 476.095 101.686Z" fill="#FED5D1" stroke="#010101" stroke-width="1.5" stroke-linecap="round" stroke-linejoin="round"/>
<path d="M159.577 101.433C263.131 101.433 402.084 101.686 476.095 101.686C466.42 185.866 467.073 193.985 457.209 252.798C350.593 252.258 250.563 252.8 143.945 252.798C148.738 224.215 155.413 137.661 159.577 101.433Z" fill="white" stroke="#010101" stroke-width="1.5" stroke-linecap="round" stroke-linejoin="round"/>
<path d="M174.427 129.077C208.138 129.077 254.973 128.234 294.917 129.077C291.119 163.134 287.923 189.667 285.019 222.685C244.701 222.685 204.535 223.111 164.227 224.915C164.454 222.333 171.013 159.68 174.427 129.077Z" fill="#FF614F" stroke="#010101" stroke-width="1.5" stroke-linecap="round" stroke-linejoin="round"/>
<path d="M239.731 186.242C235.182 173.54 217.809 154.955 213.219 150.186C212.641 149.586 211.668 149.666 211.195 150.352C197.216 170.652 183.267 192.982 179.519 200.805C179.491 200.863 180.4 200.806 180.465 200.806C202.567 200.817 218.353 200.238 232.845 200.238C233.422 200.238 234.002 200.071 234.507 199.793C235.061 199.489 235.493 199.001 235.82 198.461C238.522 193.992 240.895 189.491 239.731 186.242Z" fill="white" stroke="#010101" stroke-width="1.5" stroke-linecap="round" stroke-linejoin="round"/>
<path d="M221.905 200.326C228.588 189.086 242.399 172.666 246.635 167.647C247.186 166.994 248.195 167.025 248.702 167.713C252.504 172.875 265.82 190.349 271.582 199.282C272.006 199.939 271.531 200.807 270.748 200.806C250.12 200.78 235.676 200.326 221.905 200.326V200.326Z" fill="white" stroke="#010101" stroke-width="1.5" stroke-linecap="round" stroke-linejoin="round"/>
<path d="M70.5954 312.723C65.4474 307.725 60.3156 302.728 55.1397 297.82C55.7779 291.855 55.3033 290.323 54.3362 285.061C54.1439 284.015 53.5428 282.746 52.4819 282.83C51.3403 282.92 51.0254 284.401 50.7842 285.519C50.2732 287.892 50.0203 288.58 49.3518 289.488C45.8735 291.396 43.0273 292.944 40.3943 295.912C39.6033 296.802 35.4596 296.615 35.2618 297.79C35.0865 298.833 38.381 301.643 39.0457 302.467C45.7363 310.758 52.0709 318.009 57.9184 325.539C60.3335 328.649 74.8671 316.87 70.5946 312.722L70.5954 312.723Z" fill="white" stroke="#010101" stroke-width="1.5" stroke-linecap="round" stroke-linejoin="round"/>
<path d="M57.1092 280.649C56.6424 280.249 56.1887 279.834 55.7482 279.404L52.601 280.757C54.1552 281.906 54.9191 282.911 56.343 284.264C56.509 283.314 56.8331 281.849 57.1092 280.649Z" fill="white" stroke="#010101" stroke-width="1.5" stroke-linecap="round" stroke-linejoin="round"/>
<path d="M34.5854 300.883C33.8967 301.708 33.2197 302.531 32.5783 303.35C33.1817 304.071 35.0926 306.084 35.931 306.638C36.7135 305.885 37.4906 305.109 38.2638 304.324C37.693 303.79 36.9679 303.111 36.2435 302.431L34.5854 300.882V300.883Z" fill="#010101" stroke="#010101" stroke-width="1.5" stroke-linecap="round" stroke-linejoin="round"/>
<path d="M38.2666 304.322C41.9 300.635 53.1492 288.209 56.3436 284.266C55.2423 283.299 52.6016 280.759 52.6016 280.759C49.3575 284.513 37.8889 296.93 34.5882 300.881C35.0876 301.348 35.6654 301.89 36.244 302.432L38.2666 304.322Z" fill="#FF614F" stroke="#010101" stroke-width="1.5" stroke-linecap="round" stroke-linejoin="round"/>
<path d="M57.5892 278.612L55.7481 279.404C56.1886 279.833 56.6423 280.248 57.1092 280.648C57.3705 279.512 57.5892 278.612 57.5892 278.612Z" fill="#010101" stroke="#010101" stroke-width="1.5" stroke-linecap="round" stroke-linejoin="round"/>
<path d="M35.6968 293.434C36.7298 291.047 39.2728 287.64 40.813 286.304C41.3993 285.796 41.939 285.089 42.6603 284.762C43.3839 284.434 44.199 284.528 44.9598 284.689C47.1879 285.16 48.2473 285.02 50.0799 286.463C52.5663 288.421 51.1757 291.228 49.1485 290.358C46.6024 289.266 45.4654 289.292 43.4576 288.207C44.9303 288.951 45.1412 288.746 46.393 289.194C47.6447 289.641 50.3474 290.995 50.4964 292.214C50.9058 295.562 47.4407 293.519 45.4879 293.194C43.539 292.87 42.4269 292.319 40.5314 291.743C42.1228 292.23 42.8837 292.621 44.4751 293.108C45.1839 293.325 45.9307 293.836 46.5147 294.321C47.9441 295.508 47.9378 297.373 44.5728 297.012C42.2516 296.763 41.1495 296.381 38.8191 295.152C40.2127 295.541 40.7486 296.391 42.0686 297.007C42.8418 297.368 45.809 300.329 42.5835 300.675C40.6959 300.878 38.4794 300.034 36.4808 298.945C34.4101 297.817 34.6909 295.758 35.6968 293.433V293.434Z" fill="white" stroke="#010101" stroke-width="1.5" stroke-linecap="round" stroke-linejoin="round"/>
<path d="M208.379 367.624C209.706 313.936 213.105 260.299 218.564 206.874C171.846 210.79 116.931 217.889 70.8969 223.535C67.839 234.79 52.7571 328.449 45.0839 375.731C61.8704 377.078 77.8527 377.112 98.9218 375.789C138.836 374.156 178.609 370.12 208.379 367.624Z" fill="#E5FAE8" stroke="#010101" stroke-width="1.5" stroke-linecap="round" stroke-linejoin="round"/>
<path d="M168.308 228.498C167.553 226.987 166.739 225.508 165.866 224.062C165.25 223.041 164.59 222.019 163.676 221.252C162.473 220.243 160.924 219.754 159.395 219.403C156.68 218.78 153.847 218.519 151.105 219.006C148.262 219.511 145.62 220.796 143.104 222.213C140.883 223.462 138.689 224.859 137.048 226.809C135.576 228.559 134.614 230.682 133.847 232.837C131.713 238.832 130.947 245.305 128.222 251.054C126.738 254.187 124.701 257.038 123.28 260.2C121.253 264.71 120.545 269.806 121.266 274.699C125.847 274.402 130.428 274.105 135.009 273.808C137.648 273.637 140.324 273.458 142.818 272.58C145.312 271.703 147.644 270.022 148.707 267.598C149.52 265.743 149.524 263.651 149.601 261.627C149.731 258.214 150.107 254.815 150.481 251.421C150.788 248.648 151.112 245.811 152.338 243.306C155.579 236.689 164.17 234.073 168.309 228.499L168.308 228.498Z" fill="#010101" stroke="#010101" stroke-width="1.5" stroke-linecap="round" stroke-linejoin="round"/>
<path d="M177.106 350.245C187.794 329.729 202.744 311.454 220.725 296.922C226.051 292.618 231.916 288.52 238.676 287.456C242.978 286.779 247.879 287.625 250.639 290.997C254.877 296.174 252.059 303.889 248.944 309.812C238.122 330.386 225.41 349.962 212.169 368.984C206.351 367.749 200.504 366.505 194.953 364.367C189.402 362.23 184.11 359.141 180.146 354.701C178.301 352.634 176.743 350.28 177.106 350.246L177.106 350.245Z" fill="#86DD94" stroke="#010101" stroke-width="1.5" stroke-linecap="round" stroke-linejoin="round"/>
<path d="M258.562 369.516C268.906 354.185 278.889 340.748 283.572 322.849C284.862 317.914 285.314 311.765 281.32 308.6C277.321 305.431 271.459 307.291 266.897 309.573C242.06 321.998 222.008 343.744 211.867 369.718C231.348 369.718 242.988 370.016 258.562 369.516Z" fill="#86DD94" stroke="#010101" stroke-width="1.5" stroke-linecap="round" stroke-linejoin="round"/>
<path d="M256.937 340.309C255.079 334.899 253.221 329.489 251.363 324.08L256.937 340.309Z" fill="#86DD94"/>
<path d="M256.937 340.309C255.079 334.899 253.221 329.489 251.363 324.08" stroke="#010101" stroke-width="1.5" stroke-linecap="round" stroke-linejoin="round"/>
<path d="M247.191 355.408C253.937 353.799 260.613 351.893 267.191 349.697L247.191 355.408Z" fill="#86DD94"/>
<path d="M247.191 355.408C253.937 353.799 260.613 351.893 267.191 349.697" stroke="#010101" stroke-width="1.5" stroke-linecap="round" stroke-linejoin="round"/>
<path d="M223.441 314.165C222.115 310.495 220.789 306.824 219.463 303.154L223.441 314.165Z" fill="#86DD94"/>
<path d="M223.441 314.165C222.115 310.495 220.789 306.824 219.463 303.154" stroke="#010101" stroke-width="1.5" stroke-linecap="round" stroke-linejoin="round"/>
<path d="M213.811 328.849C220.078 329.065 226.373 328.416 232.466 326.93L213.811 328.849Z" fill="#86DD94"/>
<path d="M213.811 328.849C220.078 329.065 226.373 328.416 232.466 326.93" stroke="#010101" stroke-width="1.5" stroke-linecap="round" stroke-linejoin="round"/>
<path d="M237.648 369.276C245.435 357.311 253.228 345.335 261.802 333.923C267.205 326.73 272.915 319.765 278.086 312.403" stroke="#010101" stroke-width="1.5" stroke-linecap="round" stroke-linejoin="round"/>
<path d="M201.974 344.514C215.687 326.023 229.627 307.702 243.789 289.554" stroke="#010101" stroke-width="1.5" stroke-linecap="round" stroke-linejoin="round"/>
<path d="M58.3051 295.432C68.3507 305.151 78.8639 314.386 89.7951 323.093C93.0314 315.8 96.3275 308.533 99.6825 301.294C102.537 295.133 105.508 288.883 110.145 283.927C121.44 271.856 139.531 270.136 155.734 266.927C176.271 262.86 196.098 255.214 214.054 244.436C216.259 243.113 218.477 241.707 220.101 239.713C223.345 235.731 229.422 222.135 236.235 205.486C242.849 206.733 248.124 213.265 254.738 214.512C249.989 231.937 247.289 241.376 239.128 257.483C236.984 261.716 234.648 265.992 231.059 269.091C228.199 271.561 224.7 273.147 221.225 274.63C209.371 279.689 197.176 283.947 184.751 287.366C184.798 306.591 185.738 323.766 186.911 345.548C164.878 346.394 140.852 347.456 118.921 349.742C120.229 336.524 120.059 323.446 120.989 314.042C118.175 320.253 103.004 347.128 92.9229 347.672C87.2785 347.977 81.8094 346.085 76.8909 343.295C63.2507 335.56 52.0899 323.719 42.2258 311.518C47.7516 305.616 52.266 301.233 58.3028 295.432H58.3051Z" fill="#112F1D" stroke="#010101" stroke-width="1.5" stroke-linecap="round" stroke-linejoin="round"/>
<path d="M445.546 257.632C449.774 220.013 455.996 172.107 460.892 134.569C439.734 134.569 424.526 134.746 406.508 135.218C402.32 172.825 396.569 219.887 394.074 258.896C410.27 259.044 428.991 258.686 445.546 257.633V257.632Z" fill="white" stroke="#010101" stroke-width="1.5" stroke-linecap="round" stroke-linejoin="round"/>
<path d="M449.713 171.008C446.496 172.565 421.506 172.422 409.442 172.398C409.406 162.946 410.223 153.578 411.573 144.289C425.557 143.084 439.201 142.729 452.837 143.481C451.262 152.683 450.073 161.952 449.713 171.008Z" stroke="#010101" stroke-width="1.5" stroke-linecap="round" stroke-linejoin="round"/>
<path d="M411.572 144.288C425.049 152.478 436.714 161.273 449.698 170.226" stroke="#010101" stroke-width="1.5" stroke-linecap="round" stroke-linejoin="round"/>
<path d="M452.107 144.174C437.923 153.496 423.74 162.818 409.556 172.14" stroke="#010101" stroke-width="1.5" stroke-linecap="round" stroke-linejoin="round"/>
<path d="M445.763 207.958C442.546 209.515 417.555 209.372 405.492 209.348C405.455 199.896 406.273 190.529 407.622 181.239C421.607 180.034 435.251 179.679 448.886 180.431C447.311 189.633 446.122 198.902 445.763 207.958Z" stroke="#010101" stroke-width="1.5" stroke-linecap="round" stroke-linejoin="round"/>
<path d="M407.622 181.238C421.099 189.428 432.764 198.223 445.748 207.176" stroke="#010101" stroke-width="1.5" stroke-linecap="round" stroke-linejoin="round"/>
<path d="M448.157 181.123C433.973 190.445 419.789 199.768 405.605 209.089" stroke="#010101" stroke-width="1.5" stroke-linecap="round" stroke-linejoin="round"/>
<path d="M531.601 77.8722C530.891 82.6454 529.464 87.2927 527.194 91.6394C525.692 94.5235 523.906 97.1481 521.861 99.5553C517.872 104.303 512.94 108.173 507.474 111.332C498.51 116.524 488.111 119.808 478.022 121.923C466.621 124.314 454.628 125.692 443.404 122.884C442.286 122.6 441.167 122.282 440.066 121.915C434.441 120.051 429.342 117.059 424.868 113.239C417.641 107.07 412.058 98.7529 408.553 89.5748C406.224 83.4982 404.805 77.0364 404.421 70.5754C403.971 62.8855 404.78 55.0612 407.351 47.8227C411.449 36.2622 419.919 26.6413 429.992 19.9542C440.074 13.2672 469.534 1.0216 492.235 9.18843C504.228 13.4932 513.558 23.6322 520.686 34.4151C529.031 47.0451 533.78 63.0944 531.602 77.8722H531.601Z" fill="#112F1D" stroke="#010101" stroke-width="1.5" stroke-linecap="round" stroke-linejoin="round"/>
<path d="M445.115 1.88552C445.49 1.96864 446.081 1.66803 446.373 1.91582C446.446 1.6323 446.847 1.55385 447.1 1.70143C447.353 1.84902 447.488 2.13253 447.609 2.39896C447.754 1.83426 448.641 1.45986 449.219 1.51579C450.749 1.66337 450.099 2.24594 450.645 2.44634C450.999 1.26334 453.012 1.8529 452.925 3.2798C452.872 3.18193 452.915 3.04444 453.014 2.99473C454.733 2.66383 454.799 3.58973 455.067 4.65466C455.663 4.1886 456.37 4.47911 456.588 5.02672C456.492 4.643 456.96 4.31288 457.349 4.38046C457.739 4.44804 458.032 4.75952 458.297 5.05235C458.654 4.80535 459.162 4.89856 459.511 5.15566C459.861 5.41277 460.088 5.79959 460.305 6.17554C460.698 6.10641 461.123 6.25943 461.382 6.56392C461.641 6.86841 461.726 7.31271 461.595 7.69021C461.539 7.59933 461.655 7.48049 461.761 7.49292C461.868 7.50535 461.947 7.59312 462.015 7.67623C462.444 8.20367 462.811 8.78079 463.108 9.3921C463.971 9.85505 464.326 10.7444 464.084 11.4855C464.491 11.6626 464.686 12.2117 464.482 12.6071C464.965 12.604 465.299 13.0941 465.447 13.5547C465.594 14.0153 465.665 14.5327 466.005 14.876C466.336 15.21 466.905 15.3638 467.008 15.8229C467.105 16.254 466.712 16.6276 466.352 16.8831C466.801 16.9181 467.131 17.3103 467.372 17.6917C467.873 18.4856 468.229 19.3718 468.415 20.2931C469.101 20.5362 469.516 20.9145 469.574 21.3658C469.632 21.8171 469.326 22.2878 468.89 22.4175C469.464 22.7181 469.975 23.2067 470.139 23.8351C470.302 24.4635 470.025 25.2231 469.424 25.467C469.839 25.6146 470.24 25.8811 470.409 26.2881C470.577 26.6951 470.421 27.2497 470.008 27.4004C470.245 27.4804 470.482 27.5612 470.72 27.6412C470.782 28.4195 470.699 29.2094 470.474 29.9575C470.89 30.4398 471.097 30.7598 471.062 31.0698C471.026 31.3797 470.753 31.6446 470.442 31.6702C470.796 31.9428 470.96 32.44 470.837 32.8703C470.715 33.3006 470.315 33.637 469.87 33.682C470.339 33.9849 470.388 34.7601 469.963 35.1206C470.129 35.6666 470.036 36.2857 469.719 36.7603C469.956 36.9545 469.994 37.238 469.925 37.4027C469.624 38.1243 469.075 38.7387 468.393 39.1193C468.476 39.0564 468.557 39.2047 468.55 39.308C468.506 40.091 467.965 40.7683 467.327 41.222C466.982 41.4666 466.598 41.6686 466.321 41.9871C465.883 42.4896 465.781 43.1934 465.696 43.8544C464.83 45.0257 464.589 46.7517 464.047 48.3627C462.348 53.4139 457.717 57.0553 452.687 58.7968C447.658 60.5383 442.223 60.6408 436.903 60.522C435.439 60.4894 433.937 60.4334 432.586 59.868C431.235 59.3017 430.049 58.1109 429.911 56.6506C429.407 56.437 429.058 56.2343 428.877 55.9252C428.695 55.616 428.688 55.2113 428.858 54.896C428.591 55.1461 428.142 55.1725 427.848 54.955C427.553 54.7375 427.444 54.3017 427.603 53.9708C427.368 54.1534 426.976 54.0672 426.839 53.8031C426.701 53.539 426.857 53.1677 427.142 53.0807C426.817 53.4147 426.201 53.2073 425.968 52.8034C425.734 52.3995 425.768 51.9008 425.809 51.4363C425.43 51.7765 424.476 51.5272 424.314 50.9462C424.152 50.3651 424.514 49.7709 424.922 49.3282C424.673 49.9822 423.681 50.1842 423.198 49.6785C422.714 49.1728 422.958 48.1887 423.621 47.9673C423.111 48.2749 422.397 48.1871 421.976 47.7653C422.071 47.3187 422.386 46.9241 422.8 46.733C422.354 47.2441 421.44 47.2278 421.012 46.7012C420.584 46.1746 420.752 45.2758 421.342 44.9403C420.685 45.025 419.995 44.6187 419.75 44.002C419.504 43.3852 419.724 42.6155 420.259 42.2232C419.626 42.3009 418.964 41.9203 418.712 41.3338C418.46 40.7474 418.639 40.004 419.131 39.597C418.067 39.4914 417.666 37.7809 418.572 37.2124C417.602 36.9203 417.296 35.425 418.074 34.7749C416.976 34.6506 416.582 32.8835 417.521 32.3033C416.634 31.9964 416.448 30.5695 417.228 30.0452C416.959 29.9147 416.69 29.7842 416.421 29.6537C417.697 28.4878 416.059 25.982 417.258 24.7369C416.532 24.0883 416.662 22.7329 417.499 22.2357C416.908 21.8373 416.913 20.0779 417.173 19.4138C417.519 18.533 418.055 18.5073 418.4 17.6265C418.114 17.4758 417.967 15.8197 418.063 15.5106C418.364 14.5435 419.639 14.8985 420.162 14.0317C420.598 13.3093 420.155 11.6307 420.724 11.007C421.292 10.3832 421.874 10.9588 422.556 10.4625C422.465 9.38589 423.669 8.13842 424.502 8.7171C423.984 6.53596 426.731 6.26176 426.908 7.28086C426.996 6.8855 426.638 5.73745 427.022 5.60851C427.406 5.48035 427.854 5.56734 428.163 5.83066C427.983 5.35296 428.163 4.76496 428.578 4.47057C428.994 4.17617 429.607 4.20181 429.998 4.5296C429.878 4.12957 430.063 3.65886 430.424 3.44836C430.785 3.23785 431.76 3.0693 432.143 3.57031C432.032 2.06262 434.772 2.32517 434.873 2.53412C434.844 2.13719 435.236 1.81173 435.631 1.76746C436.026 1.72318 436.412 1.88086 436.776 2.03777C436.963 1.50103 437.302 0.985266 437.816 0.746804C438.33 0.508341 438.798 1.1111 439.081 1.60279C439.247 1.0979 439.696 0.697869 440.216 0.59223C440.736 0.486591 441.543 1.1546 441.893 1.55385C442.226 1.08702 442.814 0.815933 443.385 0.865645C443.956 0.915358 444.488 1.28354 445.115 1.88397V1.88552Z" fill="#010101" stroke="#010101" stroke-width="1.5" stroke-linecap="round" stroke-linejoin="round"/>
<path d="M377.284 132.116C371.879 134.207 366.431 136.299 360.921 138.392C358.014 136.649 354.584 134.845 351.402 136.009C349.843 136.579 348.615 137.791 347.475 139C344.961 141.666 339.164 145.214 340.446 147.444C341.766 148.457 344.642 146.148 346.386 144.786C348.131 143.424 349.899 141.92 352.065 141.472C354.232 141.023 356.906 142.118 357.308 144.297C357.701 146.42 355.752 148.353 353.679 148.945C351.605 149.537 349.395 149.225 347.242 149.346C346.098 149.411 344.727 149.798 344.447 150.911C343.982 152.756 346.754 153.483 348.642 153.272C358.394 152.185 368.113 150.799 377.78 149.118C393.893 146.316 390.435 127.027 377.283 132.116L377.284 132.116Z" fill="white" stroke="#010101" stroke-width="1.5" stroke-linecap="round" stroke-linejoin="round"/>
<path d="M338.233 149.152C346.002 143.752 353.77 138.828 361.538 133.427C362.24 134.67 362.941 135.912 363.643 137.155C355.807 142.588 348.208 148.02 340.371 153.453C339.545 152.381 338.685 150.677 338.233 149.151V149.152Z" fill="white" stroke="#010101" stroke-width="1.5" stroke-linecap="round" stroke-linejoin="round"/>
<path d="M338.16 149.275C337.35 150.722 336.521 152.158 335.675 153.583C337.223 153.685 338.778 153.679 340.326 153.566C339.374 152.166 338.422 150.765 338.16 149.275Z" stroke="#010101" stroke-width="1.5" stroke-linecap="round" stroke-linejoin="round"/>
<path d="M358.209 136.163C358.893 137.044 359.577 137.926 360.262 138.806L358.209 136.163Z" fill="white"/>
<path d="M358.209 136.163C358.893 137.044 359.577 137.926 360.262 138.806" stroke="#010101" stroke-width="1.5" stroke-linecap="round" stroke-linejoin="round"/>
<path d="M424.502 25.2628C424.847 24.9809 424.635 24.4356 424.626 23.9897C424.616 23.5439 425.356 23.1594 425.404 23.6029C424.846 23.5454 424.359 22.8945 424.637 22.4059C424.916 21.9173 425.9 22.2925 425.664 22.8028C425.187 22.5496 425.004 21.8622 425.294 21.4047C425.582 20.9472 426.28 20.8174 426.714 21.1406C426.577 20.5891 426.44 20.0384 426.303 19.4869C426.607 19.4845 426.91 19.483 427.213 19.4807C427.493 18.9385 427.253 18.1889 426.709 17.9124C426.479 18.3598 427.385 18.6682 427.619 18.2231C427.852 17.778 427.474 17.2257 427.014 17.0246C426.611 17.1123 426.627 17.8021 427.011 17.9512C427.394 18.1011 427.841 17.7648 427.917 17.3593C427.993 16.9539 427.784 16.5414 427.495 16.247C428.192 16.1492 428.646 15.2675 428.323 14.6422C428.471 14.9685 429.092 14.6671 428.928 14.3486C429.178 14.6811 429.428 15.0128 429.678 15.3452C429.325 15.6147 429.271 16.1973 429.569 16.5267C429.867 16.856 430.451 16.8607 430.753 16.5352C430.363 16.8086 430.255 17.4114 430.525 17.8036C430.796 18.1959 431.396 18.3093 431.79 18.0421C431.561 18.4181 431.674 18.9633 432.032 19.2181C432.39 19.4737 432.941 19.4006 433.221 19.0612C433.139 19.6282 433.701 20.1914 434.267 20.109C434.833 20.0267 435.212 19.3253 434.971 18.8057C434.551 19.4379 434.926 20.4353 435.658 20.6326C436.39 20.8307 437.214 20.158 437.169 19.3999C436.557 19.9071 436.805 21.0862 437.57 21.3029C438.336 21.5196 439.163 20.6442 438.906 19.8908C438.656 20.5611 439.221 21.3938 439.935 21.4086C440.648 21.4233 441.247 20.6139 441.025 19.9343C440.393 20.2582 440.362 21.3223 440.973 21.6835C441.585 22.0447 442.499 21.5018 442.476 20.7903C442.158 21.3433 442.421 22.1457 443.003 22.4036C443.585 22.6615 444.354 22.3158 444.549 21.7076C444.57 22.1744 444.978 22.5908 445.444 22.6226C445.909 22.6545 446.369 22.2964 446.453 21.8373C446.111 21.856 446.053 22.4067 446.318 22.6265C446.582 22.8463 446.964 22.8207 447.306 22.7826C447.647 22.7446 448.029 22.7174 448.295 22.9341C448.332 22.4828 448.368 22.0323 448.404 21.581C448.361 21.9134 448.511 22.2638 448.6 22.5279C449.384 22.4059 449.628 21.4047 450.189 20.8431C450.599 20.4337 451.187 20.2628 451.759 20.1704C452.196 20.0997 452.653 20.0663 453.077 20.1937C453.571 20.3421 453.975 20.6916 454.348 21.0466C454.794 21.4715 455.224 21.9243 455.537 22.4548C456.228 23.6246 456.282 25.1339 455.725 26.3728C455.168 27.6117 453.557 30.2278 452.113 30.7809C454.528 35.5921 455.659 39.2864 458.614 43.6688C460.449 43.4901 462.903 42.3872 465.306 41.7067C467.916 43.6828 470.336 46.1451 471.333 49.2669C472.424 52.6854 471.658 56.4348 470.347 59.7748C469.626 61.6103 468.724 63.41 467.37 64.8424C465.927 66.3695 464.043 67.4041 462.122 68.2515C456.55 70.7084 450.378 71.7834 444.305 71.3531C442.277 71.2094 440.215 70.8855 438.424 69.9223C436.226 68.7393 434.584 66.6297 433.793 64.259C433.002 61.8884 433.033 59.2808 433.692 56.8705C433.9 56.1109 434.18 55.3473 434.704 54.7593C435.3 54.0921 436.147 53.7177 436.967 53.3635C438.855 52.5471 440.742 51.7307 442.607 50.7846C441.937 49.1869 441.205 47.6147 440.324 45.8321C436.436 47.3809 431.565 45.8577 429.247 42.3685C428.439 41.1521 427.932 39.7633 427.48 38.3744C426.063 34.0231 425.117 29.5187 424.502 25.2589V25.2628Z" fill="#D27D41" stroke="#010101" stroke-width="1.5" stroke-linecap="round" stroke-linejoin="round"/>
<path d="M531.601 77.873C530.892 82.6462 529.465 87.2935 527.195 91.6403C525.692 94.5243 523.906 97.149 521.862 99.5562C510.662 91.8158 499.896 81.7188 489.931 73.2428C495.414 85.1544 501.907 99.2136 507.474 111.334C498.51 116.525 488.112 119.81 478.022 121.924C466.622 124.315 454.629 125.694 443.404 122.886C443.145 122.251 442.87 121.582 442.578 120.88C438.999 112.379 434.692 100.309 431.103 91.808C429.208 98.52 426.972 106.043 424.868 113.24C423.967 116.325 423.091 119.359 422.281 122.234C421.338 125.561 420.353 128.98 418.209 131.697C415.288 135.408 410.664 137.255 406.266 138.944C393.139 143.976 380.019 149.008 367.525 153.656C365.756 147.428 363.995 141.201 362.226 134.974C374.377 130.285 386.536 125.604 399.264 120.195C402.36 109.99 405.457 99.783 408.552 89.5772C410.097 84.4786 411.641 79.3877 413.184 74.2976C414.169 71.0462 415.179 67.7364 417.09 64.9277C421.179 58.9264 428.54 56.2676 435.817 53.9024C437.153 58.4666 440.524 62.3783 444.831 64.3762C449.129 66.3654 454.295 66.4074 458.626 64.4764C461.129 63.3563 463.383 61.5845 464.819 59.2356C467.907 54.1704 466.688 47.6752 464.819 41.8409C469.76 39.9604 475.092 38.0628 480.208 39.4004C483.313 40.2113 485.992 42.1501 488.571 44.0648C503.234 54.9231 517.581 66.1992 531.602 77.8762L531.601 77.873Z" fill="white" stroke="#010101" stroke-width="1.5" stroke-linecap="round" stroke-linejoin="round"/>
<path d="M455.623 65.4609C461.424 82.0586 468.403 100.336 474.203 116.933" stroke="#010101" stroke-width="1.5" stroke-linecap="round" stroke-linejoin="round"/>
<path d="M442.405 120.061C463.959 120.307 477.961 117.308 505.884 107.87" stroke="#010101" stroke-width="1.5" stroke-linecap="round" stroke-linejoin="round"/>
<path d="M430.818 30.9756C430.806 32.9439 430.792 34.913 430.78 36.8813C431.779 37.1034 432.828 37.0925 433.823 36.8517" stroke="#010101" stroke-width="1.5" stroke-linecap="round" stroke-linejoin="round"/>
<path d="M439.78 46.0921C441.732 45.626 443.315 44.2403 444.811 42.9004" stroke="#010101" stroke-width="1.5" stroke-linecap="round" stroke-linejoin="round"/>
<path d="M465.227 73.8654C464.915 74.0114 464.651 74.281 464.562 74.6142C464.472 74.9474 464.582 75.3381 464.862 75.5393C465.139 75.7382 465.511 75.7249 465.849 75.6877C465.981 75.6737 466.117 75.655 466.227 75.582C466.328 75.516 466.394 75.4111 466.458 75.3094C466.562 75.1424 466.664 74.9707 466.712 74.7804C466.76 74.5901 466.749 74.375 466.638 74.2134C466.566 74.1101 466.459 74.0355 466.347 73.978C466.103 73.8537 465.771 73.6114 465.227 73.8654Z" stroke="#010101" stroke-width="1.5" stroke-linecap="round" stroke-linejoin="round"/>
<path d="M475.476 102.876C474.941 102.801 474.379 103.219 474.322 103.758C474.266 104.295 474.753 104.832 475.292 104.804C475.717 104.781 476.088 104.441 476.207 104.033C476.326 103.624 476.265 102.989 475.476 102.877L475.476 102.876Z" stroke="#010101" stroke-width="1.5" stroke-linecap="round" stroke-linejoin="round"/>
<path d="M471.255 89.5566C470.721 89.4813 470.159 89.9 470.102 90.4383C470.045 90.9766 470.532 91.5125 471.071 91.4846C471.496 91.462 471.867 91.1218 471.986 90.7132C472.106 90.3047 472.045 89.6693 471.256 89.5574L471.255 89.5566Z" stroke="#010101" stroke-width="1.5" stroke-linecap="round" stroke-linejoin="round"/>
<path d="M144.689 246.693C143.829 247.552 142.496 247.903 141.325 247.58C140.154 247.256 139.19 246.27 138.891 245.09C138.715 244.393 138.76 243.654 138.916 242.953C139.233 241.534 140.071 240.166 141.378 239.533C142.685 238.899 144.468 239.195 145.238 240.552C146.705 241.337 148.591 240.869 149.896 239.837C151.202 238.806 152.045 237.31 152.823 235.838C154.633 232.408 156.29 228.783 156.572 224.914C159.739 227.624 164.085 228.899 168.298 228.128C169.292 230.905 169.72 233.848 170.143 236.767C170.506 239.268 170.703 241.804 170.333 244.304C169.265 251.551 166.048 253.315 161.433 254.917C161.564 258.091 161.696 261.265 162.022 264.57C164.356 264.313 166.681 263.98 168.826 263.433C169.404 269.805 169.01 276.349 166.856 282.372C164.702 288.395 160.678 293.873 155.102 296.734C151.957 295.733 148.901 294.229 146.588 291.87C144.89 290.138 143.651 288.009 142.59 285.826C140.096 280.696 138.487 275.971 138.513 270.032C140.12 269.723 142.99 269.162 144.581 268.545C144.581 261.884 144.689 255.296 144.689 246.692V246.693Z" fill="#D27D41" stroke="#010101" stroke-width="1.5" stroke-linecap="round" stroke-linejoin="round"/>
<path d="M155.22 254.18C157.122 255.144 159.365 255.419 161.444 254.94" stroke="#010101" stroke-width="1.5" stroke-linecap="round" stroke-linejoin="round"/>
<path d="M162.705 235.163C163.91 236.919 164.932 238.802 165.749 240.769C164.971 241.282 164.158 241.743 163.317 242.146" stroke="#010101" stroke-width="1.5" stroke-linecap="round" stroke-linejoin="round"/>
<path d="M155.102 296.734C155.682 313.604 155.849 330.039 156.429 346.908" stroke="#010101" stroke-width="1.5" stroke-linecap="round" stroke-linejoin="round"/>
<path d="M160.84 384.981C162.791 387.494 164.742 390.007 166.692 392.52C167.183 393.152 167.855 393.855 168.637 393.686C169.166 388.719 169.21 383.7 168.768 378.725C165.215 379.84 161.886 381.664 160.84 384.981Z" fill="white" stroke="#010101" stroke-width="1.5" stroke-linecap="round" stroke-linejoin="round"/>
<path d="M118.924 349.742C103.537 350.808 95.9196 350.068 85.8701 355.12C83.8824 356.12 81.994 357.382 80.5352 359.064C75.3616 365.026 77.2337 374.934 82.9324 380.395C88.6311 385.856 96.9689 387.62 104.856 387.635C112.743 387.65 118.019 387.286 128.463 386.177C133.633 385.628 136.967 389.286 136.967 389.286C136.967 389.286 166.706 387.174 182.79 385.272C199.144 383.339 245.536 372.751 216.798 350.754C210.611 346.018 194.681 345.01 186.913 345.547C173.31 346.49 145.547 347.897 118.924 349.742Z" fill="#010101" stroke="#010101" stroke-width="1.5" stroke-linecap="round" stroke-linejoin="round"/>
<path d="M140.704 364.121C135.807 363.791 133.834 363.674 128.927 363.737C128.927 373.466 127.786 388.789 127.17 396.356C127.071 397.565 128.639 398.113 129.315 397.106C132.778 391.938 138.629 383.277 139.149 382.972C139.635 382.686 140.801 382.989 140.744 382.427C140.207 377.094 140.704 371.434 140.704 364.12L140.704 364.121Z" fill="white" stroke="#010101" stroke-width="1.5" stroke-linecap="round" stroke-linejoin="round"/>
<path d="M97.9988 360.738C112.628 361.278 126.462 360.717 141.099 360.465" stroke="white" stroke-width="1.5" stroke-linecap="round" stroke-linejoin="round"/>
<path d="M191.927 353.198C174.988 354.149 158.096 355.941 141.334 358.565C140.018 368.589 139.648 378.738 140.23 388.832" stroke="white" stroke-width="1.5" stroke-linecap="round" stroke-linejoin="round"/>
<path d="M238.245 205.851C239.968 202.972 241.388 197.401 242.583 193.002C242.772 192.311 243.294 191.452 243.966 191.699C244.305 191.824 244.48 192.192 244.608 192.53C245.311 194.387 245.64 196.387 245.567 198.374C247.372 193.744 251.053 188.241 253.639 183.998C254.839 182.246 256.234 183.437 256.383 184.125C256.532 184.812 256.05 185.576 255.816 186.239C254.615 189.63 252.054 192.698 251.14 196.002C254.478 197.481 260.12 200.721 259.729 203.136C259.338 205.547 252.896 211.83 251.614 213.91C249.62 213.079 240.93 207.647 238.245 205.851Z" fill="white" stroke="#010101" stroke-width="1.5" stroke-linecap="round" stroke-linejoin="round"/>
<path d="M252.104 194.521C251.014 196.124 249.894 198.102 248.804 199.705C248.56 200.065 248.311 200.433 248.206 200.854C248.1 201.276 248.166 201.767 248.48 202.066C248.938 202.498 249.69 202.356 250.249 202.065C252.101 201.099 253.79 197.833 255.383 196.481C254.003 197.95 252.802 199.589 251.818 201.349C251.429 202.045 251.067 202.887 251.395 203.614C251.471 203.782 251.594 203.943 251.771 203.997C251.892 204.034 252.023 204.017 252.148 203.993C253.445 203.741 254.517 202.835 255.413 201.862C256.309 200.889 257.106 199.806 258.164 199.014C257.087 200.367 256.01 201.72 254.932 203.073C253.854 204.426 254.04 205.522 255.452 205.838C256.545 206.082 258.743 204.378 259.733 203.137C260.108 202.666 260.712 202.047 259.872 200.499C258.791 198.508 253.725 193.975 252.104 194.522L252.104 194.521Z" fill="white" stroke="#010101" stroke-width="1.5" stroke-linecap="round" stroke-linejoin="round"/>
<path d="M302.287 159.105C303.546 156.432 306.3 154.53 309.242 154.301C314.146 153.919 318.82 157.816 323.63 156.785C325.285 156.43 326.761 155.515 328.363 154.967C329.719 154.503 331.166 154.308 332.596 154.393C333.518 154.448 334.705 154.472 335.058 153.617" stroke="#010101" stroke-width="1.5" stroke-linecap="round" stroke-linejoin="round"/>
<path d="M301.015 181.117C303.094 178.205 306.77 176.518 310.33 176.843C313.274 177.113 316.03 178.64 318.986 178.66C322.37 178.683 325.443 176.744 328.766 176.103C332.731 175.338 336.785 176.455 340.813 176.745C350.379 177.434 360.083 173.449 369.432 175.586C372.385 176.261 375.272 177.543 378.297 177.39C382.29 177.188 386.228 174.5 390.024 175.758" stroke="#010101" stroke-width="1.5" stroke-linecap="round" stroke-linejoin="round"/>
<path d="M302.205 206.865C304.714 204.886 307.502 202.807 310.696 202.862C313.67 202.914 316.28 204.82 319.179 205.489C322.289 206.208 325.53 205.468 328.636 204.73" stroke="#010101" stroke-width="1.5" stroke-linecap="round" stroke-linejoin="round"/>
<path d="M104.326 60.0208C111.124 55.6445 116.166 48.6126 118.135 40.7627C118.736 44.1688 119.353 47.6207 120.827 50.7487C122.301 53.8766 124.762 56.6947 128.026 57.8233C123.155 61.4298 119.878 67.1188 119.197 73.1472C117.742 65.8892 111.353 59.9012 104.326 60.0208Z" stroke="#010101" stroke-width="1.5" stroke-linecap="round" stroke-linejoin="round"/>
<path d="M509.054 173.616C511.889 171.501 514.182 168.663 515.654 165.444C515.725 167.241 515.805 169.079 516.474 170.747C517.144 172.416 518.531 173.909 520.303 174.197C517.93 175.514 516.159 177.875 515.557 180.524C515.529 177.459 512.754 174.685 509.054 173.616Z" stroke="#010101" stroke-width="1.5" stroke-linecap="round" stroke-linejoin="round"/>
<path d="M308.389 325.181C312.634 323.211 316.262 319.93 318.652 315.901C318.507 319.95 321.417 323.907 325.32 324.968C321.48 327.111 318.876 331.325 318.678 335.724C318.8 330.704 314.606 325.956 308.389 325.181Z" stroke="#010101" stroke-width="1.5" stroke-linecap="round" stroke-linejoin="round"/>
<path d="M61.5666 178.846C63.258 179.128 64.9487 179.41 66.6402 179.692" stroke="#010101" stroke-width="1.5" stroke-linecap="round" stroke-linejoin="round"/>
<path d="M354.98 49.2715C355.45 51.0596 355.919 52.8469 356.389 54.635" stroke="#010101" stroke-width="1.5" stroke-linecap="round" stroke-linejoin="round"/>
<path d="M348.731 344.601C348.167 346.953 347.604 349.305 347.04 351.658" stroke="#010101" stroke-width="1.5" stroke-linecap="round" stroke-linejoin="round"/>
<path d="M258.013 65.4318C257.131 65.7091 256.692 66.8781 257.12 67.6991C257.547 68.5202 258.685 68.8456 259.512 68.4332C260.333 68.0238 260.76 66.9286 260.368 66.0983C259.977 65.2679 258.897 65.1537 258.012 65.4318H258.013Z" fill="#010101" stroke="#010101" stroke-width="1.5" stroke-linecap="round" stroke-linejoin="round"/>
<path d="M548.414 211.49C547.532 211.768 547.093 212.937 547.521 213.758C547.948 214.579 549.086 214.904 549.913 214.492C550.734 214.082 551.161 212.987 550.769 212.157C550.378 211.326 549.299 211.212 548.414 211.49Z" fill="#010101" stroke="#010101" stroke-width="1.5" stroke-linecap="round" stroke-linejoin="round"/>
<path d="M391.966 330.001C391.085 330.278 390.646 331.447 391.073 332.268C391.5 333.09 392.639 333.415 393.465 333.002C394.286 332.593 394.713 331.498 394.322 330.668C393.93 329.837 392.85 329.723 391.966 330.001H391.966Z" fill="#010101" stroke="#010101" stroke-width="1.5" stroke-linecap="round" stroke-linejoin="round"/>
<path d="M69.7939 218.753C67.1501 218.774 64.6016 220.8 64.1627 223.411C63.7245 226.023 65.6215 228.862 68.2327 229.278C70.9921 229.718 73.7677 227.356 74.0803 224.575C74.3928 221.794 72.4718 219.017 69.7939 218.754V218.753Z" fill="#010101" stroke="#010101" stroke-width="1.5" stroke-linecap="round" stroke-linejoin="round"/>
<path d="M46.7684 369.583C44.1246 369.604 41.5762 371.63 41.1372 374.241C40.6991 376.853 42.596 379.692 45.2073 380.108C47.9666 380.548 50.7423 378.186 51.0548 375.406C51.3674 372.624 49.4464 369.847 46.7684 369.584V369.583Z" fill="#010101" stroke="#010101" stroke-width="1.5" stroke-linecap="round" stroke-linejoin="round"/>
<path d="M218.885 202.861C216.241 202.882 213.693 204.908 213.254 207.52C212.816 210.131 214.713 212.97 217.324 213.386C220.083 213.826 222.859 211.465 223.172 208.684C223.484 205.902 221.563 203.125 218.885 202.862V202.861Z" fill="#010101" stroke="#010101" stroke-width="1.5" stroke-linecap="round" stroke-linejoin="round"/>
<path d="M537.985 280.674C537.768 290.504 536.408 300.527 533.345 309.73C531.15 316.35 528.071 322.544 523.915 327.952C523.806 328.094 523.689 328.244 523.564 328.387C516.512 337.364 507.123 343.241 496.766 346.709C485.383 350.53 472.831 351.432 460.946 350.354C452.65 349.602 444.464 347.738 436.635 344.57C431.945 342.672 427.797 340.457 424.117 338.025C399.129 321.499 396.067 294.617 396.884 283.767C396.942 282.982 397.026 282.279 397.118 281.669C398.453 272.943 400.748 264.325 404.003 256.217C408.243 245.668 414.118 235.971 421.67 227.964C435.032 213.804 453.885 205.42 472.371 207.544C491.966 209.784 515.134 216.939 527.644 236.215C535.873 248.904 538.335 265.119 537.984 280.675L537.985 280.674Z" fill="#E5FAE8" stroke="#010101" stroke-width="1.5" stroke-linecap="round" stroke-linejoin="round"/>
<path d="M533.345 309.731C531.15 316.351 528.071 322.545 523.914 327.953C523.806 328.095 523.689 328.245 523.564 328.388C522.971 328.663 522.379 328.931 521.786 329.198C516.278 319.636 510.069 310.475 503.225 301.815C501.206 314.596 499.186 327.376 497.166 340.148C497.133 342.313 497.108 344.562 496.765 346.71C485.382 350.531 472.83 351.433 460.945 350.355C452.649 349.603 444.463 347.739 436.634 344.57C431.944 342.673 427.796 340.458 424.116 338.026C425.409 321.091 428.606 307.483 429.507 290.306C422.781 289.194 404.746 285.909 396.884 283.769C395.148 283.301 393.913 282.883 393.396 282.557C379.659 273.914 372.573 244.893 365.938 230.415C372.815 226.813 379.692 223.219 386.569 219.616C391.243 231.988 396.851 244.868 404.004 256.219C405.355 258.384 406.775 260.499 408.251 262.538C422.881 263.725 438.83 264.394 458.075 265.949C458.484 271.082 462.573 279.231 469.475 280.092C480.884 281.513 484.322 274.976 485.883 268.022C492.643 268.465 496.632 268.707 503.442 269.962C505.137 270.271 506.797 270.881 508.2 271.876C509.835 273.038 510.945 274.784 512.014 276.473C516.771 284.021 521.536 291.569 526.293 299.117C528.563 302.703 530.833 306.314 533.345 309.733V309.731Z" fill="#4A609B" stroke="#010101" stroke-width="1.5" stroke-linecap="round" stroke-linejoin="round"/>
<path d="M494.561 299.641C489.293 299.369 484.045 298.718 478.655 297.461C477.827 302.195 477.216 306.967 476.971 311.836C477.286 312.733 478.178 313.273 479.01 313.729C480.866 314.75 482.814 315.75 484.926 315.902C488.009 316.124 490.924 314.511 493.125 312.57C494.097 308.011 494.543 303.339 494.561 299.64V299.641Z" stroke="white" stroke-width="1.5" stroke-linecap="round" stroke-linejoin="round"/>
<path d="M332.962 187.507C333.109 196.696 333.256 205.885 333.404 215.074C347.311 213.755 361.269 215.308 375.236 215.033C376.175 204.13 375.364 198.089 376.324 186.94C367.486 187.497 341.247 186.985 332.962 187.507Z" fill="#FED5D1" stroke="#010101" stroke-width="1.5" stroke-linecap="round" stroke-linejoin="round"/>
<path d="M383.782 220.841C382.924 217.814 382.024 214.706 380.101 212.218C379.269 211.141 378.266 210.211 377.269 209.287C375.562 207.706 373.732 206.059 371.452 205.601C371.111 205.533 370.743 205.496 370.428 205.641C369.799 205.931 369.682 206.828 369.98 207.453C370.278 208.078 370.856 208.513 371.367 208.98C372.945 210.42 374.29 212.786 375.885 214.839C372.361 215.215 368.838 214.941 365.314 215.317C365.826 217.829 368.232 225.676 369.816 228.082C375.828 225.439 377.562 223.965 383.783 220.84L383.782 220.841Z" fill="white" stroke="#010101" stroke-width="1.5" stroke-linecap="round" stroke-linejoin="round"/>
<path d="M460.333 235.326C460.754 230.653 461.2 225.885 463.081 221.589C463.539 220.542 464.093 219.514 464.907 218.713C466.087 217.551 467.738 216.957 469.386 216.802C471.034 216.648 472.693 216.9 474.313 217.238C479.063 218.228 483.625 219.947 488.143 221.717C489.58 222.28 491.035 222.86 492.261 223.8C494.936 225.851 496.361 229.192 496.258 232.565C496.155 235.937 494.897 239.168 493.395 242.188C490.161 248.686 485.072 252.668 479.696 257.539C477.134 254.071 476.376 248.293 473.179 243.046C470.736 239.039 467.26 235.513 460.333 235.326V235.326Z" fill="#010101" stroke="#010101" stroke-width="1.5" stroke-linecap="round" stroke-linejoin="round"/>
<path d="M376.069 215.074C375.323 215.597 374.732 216.341 374.391 217.188C374.199 217.666 374.086 218.172 373.986 218.678C373.822 219.505 373.693 220.374 373.94 221.18" stroke="#010101" stroke-width="1.5" stroke-linecap="round" stroke-linejoin="round"/>
<path d="M464.849 255.557C464.183 258.99 464.215 261.29 463.253 266.253C461.069 266.135 459.908 265.937 457.734 266.164C455.887 270.82 457.697 279.136 461.71 281.652C463.062 282.5 464.595 283.02 466.148 283.388C468.439 283.929 470.804 284.152 473.155 284.047C476.041 283.918 478.955 283.275 481.426 281.777C483.897 280.278 485.887 275.073 486.475 272.24C486.696 271.174 487.494 268.331 486.441 268.058C484.704 267.605 481.817 267.244 479.683 266.971C480.656 260.473 481.431 254.214 482.206 247.957C484.605 248.097 487.112 246.44 487.639 244.133C488.017 242.48 487.158 240.424 485.49 240.128C484.435 239.941 483.359 240.501 482.646 241.302C481.934 242.103 481.515 243.117 481.109 244.11C480.501 244.011 479.892 243.911 479.284 243.812C479.011 242.727 480.045 241.554 479.584 240.535C479.17 239.618 477.873 239.535 477.17 238.817C476.35 237.981 476.586 236.59 477.035 235.508C477.485 234.426 478.108 233.305 477.882 232.154C477.55 230.459 475.588 229.656 473.874 229.458C472.16 229.261 470.279 229.328 468.91 228.275C468.417 227.896 468.017 227.386 467.461 227.109C466.585 226.674 465.488 226.928 464.7 227.507C463.911 228.086 463.374 228.94 462.895 229.795C461.658 232.004 460.689 234.365 459.909 236.915C458.382 240.903 456.831 245.2 457.84 249.35C458.091 250.379 458.504 251.384 459.17 252.208C459.987 253.216 461.13 253.896 462.257 254.536C463.121 255.025 464.873 255.444 464.85 255.558L464.849 255.557Z" fill="#D27D41" stroke="#010101" stroke-width="1.5" stroke-linecap="round" stroke-linejoin="round"/>
<path d="M464.319 255.426C466.321 256.005 468.393 256.342 470.474 256.429" stroke="#010101" stroke-width="1.5" stroke-linecap="round" stroke-linejoin="round"/>
<path d="M464.534 238.305C463.671 239.565 462.808 240.827 461.945 242.087C461.901 242.152 461.854 242.225 461.867 242.303C461.878 242.376 461.939 242.431 461.998 242.476C462.729 243.033 463.287 243.096 464.64 243.612" stroke="#010101" stroke-width="1.5" stroke-linecap="round" stroke-linejoin="round"/>
<path d="M136.583 136.468C149.064 136.17 161.539 135.545 173.988 134.595L136.583 136.468Z" fill="#E5FAE8"/>
<path d="M136.74 145.107C143.428 145.052 150.114 144.729 156.777 144.139L136.74 145.107Z" fill="#E5FAE8"/>
<path d="M258.981 369.705C266.169 369.623 273.358 369.542 280.546 369.46" stroke="#010101" stroke-width="1.5" stroke-linecap="round" stroke-linejoin="round"/>
</g>
</svg>
