<svg width="18" height="18" viewBox="0 0 18 18" fill="none" xmlns="http://www.w3.org/2000/svg">
<g id="Search">
<g id="Group 3">
<mask id="mask0_7374_2300" style="mask-type:luminance" maskUnits="userSpaceOnUse" x="0" y="0" width="17" height="17">
<path id="Clip 2" fill-rule="evenodd" clip-rule="evenodd" d="M0.666672 0.666504H16.8973V16.8973H0.666672V0.666504Z" fill="white"/>
</mask>
<g mask="url(#mask0_7374_2300)">
<path id="Fill 1" fill-rule="evenodd" clip-rule="evenodd" d="M8.78234 1.9165C4.9965 1.9165 1.9165 4.99567 1.9165 8.7815C1.9165 12.5673 4.9965 15.6473 8.78234 15.6473C12.5673 15.6473 15.6473 12.5673 15.6473 8.7815C15.6473 4.99567 12.5673 1.9165 8.78234 1.9165M8.78234 16.8973C4.30734 16.8973 0.666504 13.2565 0.666504 8.7815C0.666504 4.3065 4.30734 0.666504 8.78234 0.666504C13.2573 0.666504 16.8973 4.3065 16.8973 8.7815C16.8973 13.2565 13.2573 16.8973 8.78234 16.8973" fill="#8C8890"/>
</g>
</g>
<g id="Group 6">
<mask id="mask1_7374_2300" style="mask-type:luminance" maskUnits="userSpaceOnUse" x="13" y="13" width="5" height="5">
<path id="Clip 5" fill-rule="evenodd" clip-rule="evenodd" d="M13.3666 13.7559H17.5533V17.9348H13.3666V13.7559Z" fill="white"/>
</mask>
<g mask="url(#mask1_7374_2300)">
<path id="Fill 4" fill-rule="evenodd" clip-rule="evenodd" d="M16.9285 17.9348C16.7693 17.9348 16.6093 17.874 16.4868 17.7523L13.5502 14.824C13.306 14.5798 13.3052 14.184 13.5493 13.9398C13.7927 13.694 14.1885 13.6957 14.4335 13.9382L17.3702 16.8673C17.6143 17.1115 17.6152 17.5065 17.371 17.7507C17.2493 17.874 17.0885 17.9348 16.9285 17.9348" fill="#8C8890"/>
</g>
</g>
</g>
</svg>
